<svg width="20" height="20" viewBox="0 0 20 20" fill="none" xmlns="http://www.w3.org/2000/svg">
    <path fill-rule="evenodd" clip-rule="evenodd" d="M0.469111 2.24594C0 3.14902 0 4.33546 0 6.70833V13.2917C0 15.6645 0 16.851 0.469111 17.7541C0.864425 18.5151 1.48493 19.1356 2.24594 19.5309C3.14902 20 4.33546 20 6.70833 20L8.33336 20V12.7778H5.83336V10H8.33336V7.77778C8.33336 5.27778 9.94447 3.88889 12.2222 3.88889C12.9445 3.88889 13.7222 4 14.4445 4.11111V6.66667H13.1667C11.9445 6.66667 11.6667 7.27778 11.6667 8.05556V10H14.3334L13.8889 12.7778H11.6667V20L13.2917 20C15.6645 20 16.851 20 17.7541 19.5309C18.5151 19.1356 19.1356 18.5151 19.5309 17.7541C20 16.851 20 15.6645 20 13.2917V6.70833C20 4.33546 20 3.14902 19.5309 2.24594C19.1356 1.48493 18.5151 0.864425 17.7541 0.469111C16.851 0 15.6645 0 13.2917 0H6.70833C4.33546 0 3.14902 0 2.24594 0.469111C1.48493 0.864425 0.864425 1.48493 0.469111 2.24594Z" fill="white"/>
</svg>
