<svg width="20" height="18" viewBox="0 0 20 18" fill="none" xmlns="http://www.w3.org/2000/svg">
    <path fill-rule="evenodd" clip-rule="evenodd" d="M5 17.3335H15C18 17.3335 20 15.8335 20 12.3335V5.3335C20 1.8335 18 0.333496 15 0.333496H5C2 0.333496 0 1.8335 0 5.3335V12.3335C0 15.8335 2 17.3335 5 17.3335ZM15.4681 6.41951C15.7917 6.16101 15.8445 5.68908 15.586 5.36543C15.3275 5.04178 14.8556 4.98897 14.5319 5.24748L11.4029 7.74673L11.4025 7.74699C10.6462 8.34886 9.3446 8.349 8.58797 7.7474L5.46898 5.24821C5.14573 4.9892 4.67372 5.04127 4.41471 5.36452C4.1557 5.68776 4.20778 6.15977 4.53102 6.41878L7.65102 8.91878L7.65287 8.92026C8.95626 9.95791 11.0337 9.95791 12.3371 8.92026L12.3381 8.91951L15.4681 6.41951Z" fill="white"/>
</svg>
