<svg width="20" height="21" viewBox="0 0 20 21" fill="none" xmlns="http://www.w3.org/2000/svg">
    <path d="M19.97 16.9965C19.97 17.3565 19.89 17.7265 19.72 18.0865C19.55 18.4465 19.33 18.7865 19.04 19.1065C18.55 19.6465 18.01 20.0365 17.4 20.2865C16.8 20.5365 16.15 20.6665 15.45 20.6665C14.43 20.6665 13.34 20.4265 12.19 19.9365C11.04 19.4465 9.89 18.7865 8.75 17.9565C7.58811 17.1066 6.49169 16.1706 5.47 15.1565C4.45877 14.1385 3.5261 13.0454 2.68 11.8865C1.86 10.7465 1.2 9.6065 0.72 8.4765C0.24 7.3365 0 6.2465 0 5.2065C0 4.5265 0.12 3.8765 0.36 3.2765C0.6 2.6665 0.98 2.1065 1.51 1.6065C2.15 0.976504 2.85 0.666504 3.59 0.666504C3.87 0.666504 4.15 0.726504 4.4 0.846504C4.66 0.966504 4.89 1.1465 5.07 1.4065L7.39 4.6765C7.57 4.9265 7.7 5.1565 7.79 5.3765C7.88 5.5865 7.93 5.7965 7.93 5.9865C7.93 6.2265 7.86 6.4665 7.72 6.6965C7.59 6.9265 7.4 7.1665 7.16 7.4065L6.4 8.1965C6.29 8.3065 6.24 8.4365 6.24 8.5965C6.24 8.6765 6.25 8.7465 6.27 8.8265C6.3 8.9065 6.33 8.9665 6.35 9.0265C6.53 9.3565 6.84 9.7865 7.28 10.3065C7.73 10.8265 8.21 11.3565 8.73 11.8865C9.27 12.4165 9.79 12.9065 10.32 13.3565C10.84 13.7965 11.27 14.0965 11.61 14.2765C11.66 14.2965 11.72 14.3265 11.79 14.3565C11.87 14.3865 11.95 14.3965 12.04 14.3965C12.21 14.3965 12.34 14.3365 12.45 14.2265L13.21 13.4765C13.46 13.2265 13.7 13.0365 13.93 12.9165C14.16 12.7765 14.39 12.7065 14.64 12.7065C14.83 12.7065 15.03 12.7465 15.25 12.8365C15.47 12.9265 15.7 13.0565 15.95 13.2265L19.26 15.5765C19.52 15.7565 19.7 15.9665 19.81 16.2165C19.91 16.4665 19.97 16.7165 19.97 16.9965Z" fill="white"/>
</svg>
